<?xml version="1.0" encoding="iso-8859-1"?>
<!-- Generator: Adobe Illustrator 16.0.0, SVG Export Plug-In . SVG Version: 6.00 Build 0)  -->
<!DOCTYPE svg PUBLIC "-//W3C//DTD SVG 1.1//EN" "http://www.w3.org/Graphics/SVG/1.1/DTD/svg11.dtd">
<svg xmlns="http://www.w3.org/2000/svg" xmlns:xlink="http://www.w3.org/1999/xlink" version="1.1" id="Capa_1" x="0px" y="0px" width="512px" height="512px" viewBox="0 0 612 612" style="enable-background:new 0 0 612 612;" xml:space="preserve">
<g>
	<path d="M442.448,183.245c35.25-35.08,57.113-83.589,57.113-137.121C499.562,20.651,478.911,0,453.437,0H158.588   c-25.473,0-46.124,20.651-46.124,46.125c0,53.529,21.862,102.039,57.102,137.121C87.886,230.569,32.669,318.718,32.669,419.73   C32.669,612,231.241,612,306,612c74.76,0,273.331,0,273.331-192.272C579.345,318.729,524.142,230.567,442.448,183.245z    M293.349,325.359c13.586,0,24.604,11.019,24.604,24.604c0,13.587-11.018,24.604-24.604,24.604H222.41   c-0.237,3.005-0.408,6.022-0.408,9.093s0.184,6.102,0.408,9.106h70.939c13.586,0,24.604,11.018,24.604,24.604   c0,13.586-11.018,24.604-24.604,24.604h-55.164c16.828,27.438,45.149,45.492,77.213,45.492c32.629,0,63.348-19.49,80.189-50.842   c8.605-16.038,28.57-22.061,44.609-13.441c16.023,8.593,22.045,28.57,13.441,44.609c-28.346,52.778-81.311,85.565-138.24,85.565   c-68.582,0-127.001-46.494-149.39-111.382h-20.334c-13.586,0-24.604-11.019-24.604-24.604c0-13.587,11.018-24.604,24.604-24.604   h10.859c-0.145-3.031-0.435-6.022-0.435-9.106c0-3.07,0.277-6.063,0.435-9.093h-10.859c-13.586,0-24.604-11.018-24.604-24.604   c0-13.586,11.018-24.604,24.604-24.604h20.334c22.389-64.89,80.809-111.382,149.39-111.382c56.93,0,109.895,32.787,138.24,85.566   c8.604,16.039,2.582,36.004-13.441,44.609c-16.012,8.604-36.004,2.582-44.609-13.441c-16.842-31.365-47.561-50.841-80.189-50.841   c-32.063,0-60.397,18.054-77.213,45.492L293.349,325.359L293.349,325.359z" fill="#D80027"/>
</g>
<g>
</g>
<g>
</g>
<g>
</g>
<g>
</g>
<g>
</g>
<g>
</g>
<g>
</g>
<g>
</g>
<g>
</g>
<g>
</g>
<g>
</g>
<g>
</g>
<g>
</g>
<g>
</g>
<g>
</g>
</svg>
